<mxfile host="app.diagrams.net" modified="2021-04-26T18:59:57.809Z" agent="5.0 (Windows NT 10.0; Win64; x64) AppleWebKit/537.36 (KHTML, like Gecko) Chrome/90.0.4430.85 Safari/537.36" etag="zmJnFXTJ30ZREI7EvixY" version="14.6.3" type="github">
  <diagram name="Page-1" id="822b0af5-4adb-64df-f703-e8dfc1f81529">
    <mxGraphModel dx="716" dy="405" grid="1" gridSize="10" guides="1" tooltips="1" connect="1" arrows="1" fold="1" page="1" pageScale="1" pageWidth="1100" pageHeight="850" background="#ffffff" math="0" shadow="0">
      <root>
        <mxCell id="0" />
        <mxCell id="1" parent="0" />
        <mxCell id="itZKIG-yiOrpijfQWZ46-1" value="Xilinx Go" style="outlineConnect=0;fontColor=#232F3E;gradientColor=none;fillColor=#232F3E;strokeColor=none;dashed=0;verticalLabelPosition=bottom;verticalAlign=top;align=center;html=1;fontSize=12;fontStyle=0;aspect=fixed;pointerEvents=1;shape=mxgraph.aws4.mobile_client;" vertex="1" parent="1">
          <mxGeometry x="120" y="400" width="41" height="78" as="geometry" />
        </mxCell>
        <mxCell id="itZKIG-yiOrpijfQWZ46-2" value="" style="line;strokeWidth=4;html=1;perimeter=backbonePerimeter;points=[];outlineConnect=0;" vertex="1" parent="1">
          <mxGeometry x="161" y="431" width="160" height="10" as="geometry" />
        </mxCell>
        <mxCell id="itZKIG-yiOrpijfQWZ46-3" value="Kony Cloud" style="ellipse;shape=cloud;whiteSpace=wrap;html=1;" vertex="1" parent="1">
          <mxGeometry x="321" y="400" width="120" height="80" as="geometry" />
        </mxCell>
        <mxCell id="itZKIG-yiOrpijfQWZ46-6" value="" style="shape=image;verticalLabelPosition=bottom;labelBackgroundColor=#ffffff;verticalAlign=top;aspect=fixed;imageAspect=0;image=data:image/png,iVBORw0KGgoAAAANSUhEUgAAAk8AAADTCAYAAACY/Pd/AAAuo0lEQVR42u2dC5hUxZn3e1AZprtHEROjuZtE46qJkk0+NYZI3KAQY9yo4wUDDjPT57QG3eyaqCuJjmgSjZqYYc3KRuERUTZN5nJO1enViEgSL2j8surqfiKIgmKMGES5yWXgq7d71AFmhpnuqjpVdf6/5zmPPhsX+tSpU+/vvFX1VioFAAAAAAAAAAAAAAAAAAAAAADyaG9vP5hzPkZc3xHXNM6LbZxHt0dRdLf4944oKoYyLvFnzhZ/5rFocQAAALZB8ascx2TFRIqvFGej28txl+JvKQ6PobiMFjdTli4SD+we8eBeEg9xh65L/J3bgiAah6cAAADAFihuUfzSGS8pPlOcpngNmYqJQqEwXDyIRmG3C8TD6NbbAXa7HsUTAQAAYAsUt+KMmxS3KX5THKd4jieimLa2Yi1Zq2j8lTELU+9O8AqeDAAAAFuguGVKDKV4TnGd4juejAIozSga+UWDHniPPBVX4ekAAACwR56Kq0yLpRTfsQxGIp2dnSOjKJpl4IOGPAEAAIA8yV0bNYviPp5SFYhGPIbz6AVzHzLkCQAAAORJ8nKYFyj+40lVJk6niwbcYPIDhjwBAACAPCkRqA3kAXhaQ4CxqMWAXXSQJwAAAJCnGHflkQ/giQ1KnIpTbXiokCcAAACQJ/UXeQGe2oAPlDfb9EAhTwAAACBPyq/t5Ad4cn0QhsWTRANthTwBAAAAkKddrq3kCXh6vWCMHcp5tMbChwl5AgAAAHnSswZqDfkCnmCqfNSKeJDP2PggIU8AAAAgT1pj7jM40qX8EK+z9SFCngAAAECedC8gj65N9AOkIlg2rnPC2XYAAADslSejzraraP1Tootoigf4sOUPkErJP4RXEQAAgEWJi4dsj73kD0l9eOPtF6fiVsbYWLyKAAAAbIHilu2zPj3Ji/FJzDo9pqmBN4lrGZk258V7xRWIq2P3K2of2lWcGQTBaLyGAAAAbIPiF8WxCmJfH/GzFFfv7cloLeuJuzqyT48lzXpPVtigb4kHeKf4O86nLY2tra3D8JoAAAAAeqC4S/GX4jDF43JcVhPzgyAal6CsU7GgoBFf5ZxfKB5WGl0XAAAAMCZhkqb4THFawY73QiIasaOj4wDOo82SU3ftnZ2dI9FFQQzUZLyuz2Vy/JS0F5xa7VWX6/pyysMHgExqfXaotOfjs+NTDYU6tCoAQ4fiNMVryfF/M3mF840XRdElkheM3YmpORAH6Vw4od5ny+vzfIfci63L+uFVJGZo5SqkKddxmGjLR6U/H5+vr/fYFWhhAIYOxeueqTyJAsUvToA8FRdJNM4n29qKteiOQDeUIcrm+Vb54vT+lc2z6WjpCmkK6rM+f1nl8xFidhkaGoChQ3Gb4rfEqbsHnW6wQqGQFTe6Rd5CseIJ6IYgDup9FqoNzOUMVKpx9gi0dgXPJ8eb1D8f/lZqQhs+3gCoAIrfErNPW8gvnG0sxthpErNO96P7gdiCc549pyE476j32OFo7aGT8dgNOp5PxmdHo7UBqAyK4/KObGGnOdxQfIashgrD6Ex0PRCjPC3VEZzTHvsCWnvoZP3wFzqeT53XdSxaG4DKoDgucd3TDJctc7GswpcoSQAgTyB2eWoJj0NrA1AZ5RIG0UZJs1GLnWwkWmEvbm6DJHm6D90OQJ4A5AkAu6F4LkmeNji5876jIzpMYnoOu5AA5AlAngCwHIrnstyAPMPFBmqQKE9noMsByBOIXZ6oaCYAoBo3OEOiGzQ410CMFS+TV6Ig+Dy6HIA8AcgTAHZD8Vzejruie7XXGIt+KauBcBQLgDwBI+SJjtMBAFQMxXOJJ47c4lwDcV6cL6mBtqZwbAWAPAHIEwAuUENxXVKl8fkuytMjklbUr0ZfA5AnAHkCwBU/iFZL8oOHXWyc5yVlnl5GVwOQJ2CCPNXnAxwRBUCVUFyXNG23xMXGWSnJLF9AVwOQJwB5AsCZ5MoLkpIrK11snNWSGmcZuhqAPAHIEwCu+EFxqSQ/eN3FxlkHeQKQJ8iTU/Lksa+gtQEwQ57IM5xrHFmr6SFPAPIEIE8AQJ762Y3vWuNE3ZAnAHmCPDklTy18DFobAFMyT1E35AnyBCBPkCfIEwCQJ8gT5AlAniBPkCcAAOQJ8gQgT5CnRMpT1g++itYGAPIEeQIA8gR5gjwBAHmCPAEAeYI8QZ4AgDxBngCAPIF45SkXnojWBgDyBHkCAPIEeYI8AQB5gjwBAHmCPEGeAIA8QZ4AgDyBeOUpz8aitQGAPEGeAIA8QZ4gTwBAniBPAECeIE8K5MkLvobWBgDyBHkCAPIEeRp05ik8G60NAOQJ8gQA5AnyNOiL3YHWBgDyBHkCAPIEeRp0kUy+Je0HX0SLAwB5gjwBAHmCPA0++/SGuL6NVgcA8gR5SjLNhVF1Pjs+47GJ9T7711Ig8vldIkCwrM/uy+bZIvHFvVD8817xzy7xv80W140Zj1+a9YMz0s3B6JTH0pAnB+Xp/Ln7Znw2RfSLm8Wzv1X65bEZ2Xw4rbYp+Kw98vSeRC0V78dcJe3Sc9V7/Odpn53m5Eslxgzq7zSG0Fgi+tjPxDVLtGmnGF/+S4w3D9Al/p2Lf/5W/G930n8j/tvv0dqz0rvSUKiT93tm7iP+7nPEc71JxrPL+Pz6rMcbxG8cjiADeYI82c6Etloq9EcBqzQo+ewVSVu4u8Wft0T8ef8pAtnFZQloHQZ5sleehDT9QznLoqUEQLcIONfYJU/6rmyeF+x+n1qHpVv434s+9U/iOf9GSNDzpTFDzrizTIw78+nPpr9DyMpeQ/11JO80fqmZ6mXP1LW0fxTBB/IEebKMTEvwIfEFdGGPLG3QNuD7bHX5y5ydk5o0JwN5skee6vPBCTr7yvsVvPm5kKe+L8q4WPXSNBSyGT88T8jSPbokvHT5fK2Qqnn0d6caO0cOJgMmZG654izlo4hEkKdBIW5sO+QpRhpnj8j4wXdKqW+fbYv9y1kEYspKZTx2svh1NZAnc+VJfMEfLYLJm/H0FfY45Kn/aUIrMky5cAJlgsTYs9GAcWcz/Za0F5zaX0aqNC2t5fcEJyAwyZUn8gwX5WkH5Ek/dR77OK1PiS/4DerL8EVa40DraSBPZslTbXPwGRFsXosx2G2DPPV/pbzCfmZ+rHWOFO/15UKYVpo79clW0ZrO1ES+/059J89+icyhtfK0w6mGaW1t3RvypDno+exQWuSdzfOtFgWDt8RX309owTrkKX55SjcFHyaxjTnAbYQ89X+NaG7/hEnvRXZK4YO0eUS8H+usaUefrydhyjQWDirdg8dv0/P3CnED0uWJfMOZhpkzZ04G8qQp4HntB1PhPhOm5qqRKDGA/UjqzhnI09AQApv1+bPxBzYWQZ4GkKd85yeNeCEaClkx5lxrlTT1sZSAPt5oOQHkyV55It9wpmEYYx+APCkfvIbTy2jz4NVH1mGlqcdfOC1PIhCKvvRY/MGMb6L1VpAns+UpkwsniWf1ahLaG/JkvjyRbzjTMGEYHgJ5UkddS3gcbX91eJCJaO0W5EkDVLrCZwsMEOfuagpPQp7UM6KJfyqb5/dDhCBPJskT+YYzDRMEwWjIkwpah4kg0yqjPoolU3kNkCelGae9sj5vNyLr6PELq7kVyJPibJPPJtNaIUgQ5Mk0eSLfcGna7mTIk+TBq7FwEFX5TtqAI0TxV5QdgTwpuac7zFh7UnlxTMiTYso1kGZBfiRcHr8SkUyFPEXjHGoYfoE8eYqWJF6ccvzrQiL+mtRBR9z7n2kLPeRJ6v3cZMiz/bWM+4E8ySfrdx1hxCYCyJNzUFyX5QjkGy41zNUSM09PJbmTZfOhn5Bpuj1da+IsMueSPNEgbkjRx6CSozQgT3o+2Op99jbGHciTGkcoPiUxwXK1S/J0t0R5ejypHUwEhKsw6OxcAyiuQ1Jdkaesz/KGPM+HZZamgDxJ7SPnUGVujDmQJ4Xy9LhEebobKbm+r0XJ61qtw0onqmPA6bMCNR2nAHmqMCgakMWkqSDZhVEhT7Iy3WwqMt2QJw3ytAhLe3ahUCiMkihOOzgvzk9Yv6qhSuEYbPaYhZoKeRrCNIwfjBfSssUA+X2lbkrXxxRkaSFPVU/nsiswtkCedEBxXaYnkHc40Cj8VLnyxGcka6qO3YKBZlDZi+3ZHD8X8rRn6nJdX6ZqygZs1X4z28yPUjTFDXmqpn/7YTPGFciTRk+YIdkTTnWgUaJbJTfKtKR0qHLFcAwyQzkxPeMH4yBPA2ScWoLPm3BINFUPr2/hY9R9dECeqhCn0y0/3gnyZJ88TZPrCdGtdq/UaW3dW9zEazIbJYqisxMhTjnehAGmoh1b69J+8EXI0+7Uep2fzub5X2yvHg55UidPJLQlscVYouE9CKdBm8pQXJcsT69ZfUCwsMlvyRWnUun1I13vSOXjVuJfj2JxBuoVOt0d8vQ+6abgw/U+W27I88ljuts8earLs4+IdluNMQTypBuK67JdgfzD5im7hZIbZMvMmTP3cboXTeT7iwFsBQaXatfT8P8SrVkDeRI0F0aZcvYhHSek4zWCPA0ROponz/6AsQPyFAcU1ym+S84+LbTVJI+Tb5LRYuen6/IswMAia00BuyLx8jRpTkaI5GJDMk7/oes9Soo8ydqpKAL5jzFmQJ5iTrYsVjBTdZyFDVFcILshoii6weXOk8mH/4xBRebgxLcKgfpKYuWpoTDcnFPv5VUPhzy9X+Ms1Th7RNXjjsdOpt2qGDMgTzGve7pBfsKluMCyrFP0TfniRBZZnOBsxsljh4tA9w4GFenXC3SYaeLkqTwN81tDykg8JLN6OORpp6np6vAK+4l+sgrjBOQpfm8oTlDjDdE3rWiAtrZircwTkntN2b09e3b1X1mGUiMG+z9iQFEWZG5MmjxlfH67IeL0LK3j0/1COS9PPl+bben4u6rbyeO3YYyAPJkAxXeK8wqyT0vJS2yYrrtGhT06dV7N7tN1jZZNh71j025Amr7L5uTu0jRZnup99jNDxOllFdXDTZcnKsVQuqhw6wBXhdK0XtxbR22u47Bq2yidC79k03RdadzJs42QJ6en7u5W4Q/kJYan3cIjhTluVnPzFm87HHh6JWtC7Z0+1wvl2aOZPPtpxg/PKwVxOn9sbK/aGRPaajMtwYfq88EJVJdKDOr/Jv7//tfQCuS/S4I8GXSkxhrZwmqyPFHmmNYO0QJ9a5YK+OwRI08K8PnT9PwyPptc53UdK/r0B1Jer13WtHausXNkujkYTacKiP/uJzRWlccsq9as/RC6tGvyRX55o56Zq83GljlqbW0dpmK1fM/1stUFrwYc5Pk1Rg1cefYAZcJS58/dt9J7qmtp/6gIJD8Qf9b/mDRYZXL8FJflqd7nniH9aJOqhfomypP4u+bqXAwvpX083mCYSPzfjMe/l2ksHFTxTYkxi8Yu0f8W2pBRgzz16RF7U7xXJFCLyVNMNMbvKxInd49kaS6MEi/RW4ZkmebQonXpg3RLeBINZobs+HrcNnkarIRk8+HZ5crd8e8AE7/5H+P/KNEjT7TYWvdieAkhahitRTNl0bsK0c76XUfQgeomHzMDeerXJaYpdInvG3WzjLHDxQ/bpMgWNxYKaqtFx/j1d50BL/ACFdK0K3TmnBjMlsR9v2kvkHJgpC55ovIVe2zbHD/FlDVoQuJ8MzK6euSJprWtG3dy/FwDxp1nsn7wVfX9oOsI8Xc9CHmyB4r3FPcVCdQm8hVj0mziRh9TZYpRFN3sZA+h4oV5vibGE+3fzuTCSVrvuVR3KPxxnBkSGkhtkifRVisHymzU+ex4cU8bklQ93Ch58sPzbBt6xO9+Is7MpPho/NFOayc1UNqU4/P1kCc7oLivLvsUPWbEMiDO+XR14lRc72zWKc+mxvjSPlnrs0PjunfKQmXz/PX4sk/VH3mibdqu/Lzuo3o8u/2GFj5GSPCbhqxzmmnU+6VJntI5uzayZHPhiTH2kVd1ZJv6fWdLtfTMWYcJeRo4+0TxX+H03fRYbzAIiicIi9um6gYZi651tXPEddYYVZxONQX1cd9/bXPwGSpgaesxITrlqec3r6Z6VeKf55QWxebZPFPWc4ig2GXagmnIU78fbfNiWm/43Ijm9k/E3gDnz93XlGk8yNPAUPxXmH3aRv4SlxmOEj9ghcKs00rG5FeGNgGaaonpZe2kqTNT2oF21sRT2oCtoxIRNsmTuYte9VcPhzxVyOSOA0S7bI4j010qN2AKE9pqxYcIhzyZLk8sTR6gUKBWkMfovq+aKIqYQnHaIRruLGezTnn2q1jW+ohBwziRnNL1MSqmqL9sQXXrvSBP8VUPhzxV2ibhRTGsrVxeVfkBVQjhJ/GP9f2htV9gTwJ1lkrPII8hn9F2Q5zzyxXfUNHZ3lA+c+yvmrcDL6mmbpPyQb2ZH6V/0TNjkCc7q4dDnir+aFuke1OKjEroyhDiH9fSAcjT4CEfUOkb5DO6bmQ851G3uhspvtHe3n6ws1knL/ia7oKFGZ8dbXq7iN84RXMmbnM1a78SLk+xVg+HPFXQHpM6DtS9y5XW55neLmk/+GIcU5mQp8FDPkBeoHD6rpu8RulNBEHwWfGXrVVpgWEYnelyR9B97thg6gSZ82XMC1oHsCqKOSZVnkyoHg55qujjZLLmrNOd1ozJMR1pBHkaPOQFame7imvJb5T8+I6OjgPFX7BM8XTdLa53Ap1bZWmhpk3HRqSbgg9Tqt+G7fVJlCdTqocPTp7CX0CeercHv0drZnKKRSVmvJn7xFFxHfI05FmvW9RO3xWXkudI/dGFQiHLefSEYvO7T/w9ezn99Cd3HKA32MVXU8WOr0D2HOTJvurhkKeK5OlVfVLALrFt3CmdgAB5MhryA/IEtQIVPUG+I+UHl7cLRg8ozjg93dnZOdL1h5/22Wkaqz0vsrKRGgrZep//TePUXUVbqJMmTyZVD4c8DY0RLeEhGrOTr6UaZ4+wcegR7/SjkCezIU8gX1DsIw9UXSaJDEz8YYsUm97zQRB8KAkPno4m0bcVn59ibzuxVtPPukuSPIlB/jbr+hDkqVdWJTxP487ey20dd+hZQp7Mh3yBvEHxTNiiijNQ5cP5io+onmPs6jJ3u7OCLxum6etvRUpn7QrJ1Hns41mfb9eTeeJXQp4GzDj9NpVqHQZ5slie8uynutbEZVos/hAulZHhf9GXpQuvggpVBnkD+YNiP3lkyMfDRVF0jOLq4ZRxejIpGaf3B3S2QtPalB/b31Z8oSY5mAd56jeLsNjWKRjIU6++qquats8i6z9wfXYz5MmqDNR/K/aUFeRDg/pBYRieKP4fNqgWpySscdqJCW21urIp6Vz4JevlyWOXaBrEnoA89SlOf6vLs4/YK9+Qp17ytETTBoyc9fJEh21DnqyBPIJ8QvEU3nryokFknYrPKf4hVNFzTNIeMlXa1RT01tpUnqDfqQav63O6JAHy1Gd9sEa7M5eQpx5qsnn+jo62oMO+rR+oGwrDdZ12AHmSA/mEamchLxrwRxQKheEafsQO8ffsl7QHrG0rrAOp83cHfV277lKT5mQgTzsJ5Ys2rnOCPPUx7jQWDtI0/b3KlbFa3MsDkCd7IJ/Q5C3DkXmKRZ407Xjx+Y3ODGKaDu4c0dz+CcjTTgt//93+vgN50pnBFX1mgTPjjsdmQJ6QeRpS5onAmidlg/nFmuoWtbjSZkJQ7tASAFv430Oeek3Z+fx6yJMb8pTNs7GaqvXf6lDmaSrkyQ6MWvNUzj5ht510EfD4lZoWi09waBCbrmnKYSzkaaep3xDy5IY8aSvMW2HJD0M/2r4NeTKfnt12Txqz2+5dUOdJugi0aso8fcWVNst47AdaMi0eOxnytNMUzOa0134w5MmBzJPPztIkAhc7M+7k+Nc1HWNzNRSoMoyt89RLoFBhXNYL6bOfaBnMm4PRzginH16kpc3y4TchT7ttO78D8uTAmidday1zvMmVcafOZ8dDnozPOJlbYfxdcLadXVNQdS3hcQ4J57/oWeMTjIc89SEGPvsG5MnuNsp6vEHTUSMXOjNWe8HXNGV4r4UKDQ1rzrbrnYGi04YVm959dGqys/Lksx9qEoFxDmWertIyiLWEJ0Ge+sw+vTEi3/lJG/uO+O03mZq11NoOfni6pr5ymSvjjq51Yi6cBKET8gPyBMUzYU9UnXHalY6OjgNVzzEK47vF4Wk7TVmU8Dx35Im3mZqtS8zZdj77f9kpFc77x5o9YFejqrbW+nI/c2isnoJdreZBfqB6DTZ5jpIfHwTBZ8VfslblDYRhdKaT8uTxCzCPPsQAmGf3aqmM7LNDIU8DCtSTqYl8f3ys2Pe+URkOTaUKupwZqzUdpOxSTT7VkBconvlaS36j2v7Gcx51K7S/N9rb7d7p0+cglg+/qWkQu8eVNqNK11oqjDcXRkGe9phheTx1/tx9LZKnyXqmXnjB5HagArC6MpTuZLxZpybxngEt2jPkA+QFCqfquslrtNwM5/xyxdN3RefkqTkYrSl9vtyJrz99x0psrEjsEidPpevhVIPk9QCq+o+m7ebiesHohqCz2vKsW8N71F3JR4iZGW/+F01jz6+hRoNK2BQVn3hyuc77qRE3xFTeEGPsLKd6QGPnSF1BztZFvjsFP49N1JQ5+F/I05Aym79PeZJ2oqjMWnrscG27Eg2viSWe2ct6+kZwhvXi1NLxdxqnw+dCjQaGPEBxooaRz2i9qUKhMEpxFfKV0rYLmjKg5/kabBsetJzM0bTugEOeKjjHrHH2COMzLj7bhkXjJXn6PTIpg/xo07RWrqffMOjRgOKUJg9QKE4vkcfEcnNBUDxBCNQ2ddmnyKk6GGJw+YO26RWbmTQnIwaWdSbveEmyPPUEyntTE9pqjRZwny/TNFUeGS5Pt2pqhzdN7xODGKP/rPEj5I9QpIHkKbpW4TqnbeQvsd4g53y6ygP5Ki6PbuQgxv5N14tZyQ4yg77+JutqJ5oehDxV8eXszdzH4PetU1MQ3FbX0v5Rc4Ug9DUKwTnWjjstwec1T4E/C0Xqd2brgxT/Fa5zmh77Tba2tu4tLO4xham1m13pEJl82KjxxZxpaTPViN/+tDbJzHUcBnmqKlh2pMa27m2oNEzTmImbbuoLpatcQc80+J9sHZ/Fb79L8wHcb0KT+obivsKs02PkLabMTR4uftQmRTe60ZXsE2WDdB7uWpdnH7GtjeisMH0Bj79e8UALeeot6r9JNZh3OoC2ApHlaw1tCjHypRJyK8RgvbZsbo6fYtu4M6KJf0rfGrleZVImzclAlXbPOlHcVyRPm8hXjLphzouXKkyxTXNo6u41jV+Bd1nVON7MfahejNasiSXyJH7r6mye/ZIWJ2fy4T8L8bvfsAzU3FSqdZhR/UkEJiF2W/TJuLnHbejsL6KfPmVqNrL/cZm3x/He0FQhdGlXl+DTFNaRvNS4G25tbR0mbHGxopt+2Zg0W9WpYXan1qCWC0+0pm08doXeRc+hb4c8sWJfWQ1aX0IZRmMkymezUrq3/e45KD6kMQO3ydS1hhk//L5WKRCCb8u4QweDx/XOuHScliSP2JvivaJZrMXkKUbeeBiGR4ofuFlR9ulbTmSecvxcvQGNL7OhMnTG6/ocBR+dbUPVly2QpxcGKgtA05w6syuDKJNxm0kCpXPd03t1sAwTyPK4Ex6pedxZTzWTjB+Qmwujsnm2MsYPDmfOBJSUdfqWInHaTH5i+M0Xr1G0cPxuJ3qHV9gvm+fv6M2wmH2EBFWtFjLynOat9n+uKkumSZ6yfnjRIALjmeIZbzVHoMw5diLbzI+KYQrzh0ZmdnVPNefZ/4h3u87gkaeGdozGfuwReA+K84qm664x/ubb2oq1dDqxAnN8e/ZswwvzDX4QC/QP6OFVRjYGLWaNYwDz2BU2BKJ0LvzSIKdlztNxDMcQvqiN2SVb7/MlmqWhO+2zbxiXffL4dbHsxjRwM0H5neHXG7BWcFt2UseB0KZUiuI7xXkF4rSUvMSW1NupKuwxDIsTMHUXzxofZV9+Pp8dw+6w7dUeYaNLnmg6c/BTn/wCujdTBCrjs58YIg0/iiGjsK7OZ8cneurufUH4D/PESWcl8T294/x7UCda9lOcoGjJz6mWzV0WFygwyOud6CUT2mrF4PpGHNJgzELO8s66uTFtrf+dLVMgQ5GnniyLZ5JAZfOsNe6uNqIlPCSWNvH52ro8+z9GZb199kg8mUg+25QdeLrXwQ1qXarBxWY1TtndoMAZFlhokeFxKlbLu9JR6j3+81inVOIcyCby/YU43RdjqrzqQ6dNladScPDDi40KDh6/Mv6Aye6Nqa9tqPfD0w3KuEyJcdyJYq2FRecd5tmvjKyV5rFLki5PKnbrk4fY2hgLJTfGlpkz3TD08tew/qJsvc9ViuNIibqW8Djxd6+IcaB6ScYaDJPlqTyFx35gUnCgrfJxvm9pn50WY/atO+vza4xY+zOhrVZrrbndBWr5YNfxyR5vaXG2wYVmN2VyncckVZworlN8l7zJ7AGLTVL+tkPjtxsO6WuYF2JOF68VA/tULYN6U1Cf9cNfxCmMMtcXmC5PPRmoq/B1/R41Oguw9ndgtwnb92k3YLxTubQzlN1Eu2yV3+zY1r3FO3+proPGqy2ES0fpJFGeKK6jvFEves69e02yTZ7tSofJ+OxoE9aniJf2STG4fDuloj5NQ6GOppHEfb5qwPqbv8o6DsEGeSr1sTz7qWEBIh/b++bxC+Lvg0IcPP7z1OSOA2IbeBo7R9K5agb0hVeEUH93oDpmVUSfYeUisvxZq446yvN3SqUuzC7xIB2K65KX+LxmfWFtcRO34qgWg7NPOw9mz5TWy3jsA9XeF1VapsNSY50iUFj12BZ56sk03GLQ9MT2+hxviuVlK53xxp43ZJHwejpup9br/HQs404sOxD7FYa/0LRmbXPwmaoFubFwUGknnebyFAp2a74h7uHGrB981bajbiqcpZomWZ5udaFRTpUsTzNc6jS1TcFnTaoQ3RPgtpQWdPv88tJuIY+l93gjE/n+mRz/Op3vZejagpdkfuHaJE89wfI2g3bgdWdy4aR4PlbCs43rmz5fTGLfc86ZnurkNI0upMVAaXicSlzQWELVvweR2c7W5bq+TDvoxLi1MO5lAarWQ9HsAB3ATcJNmSkSRFpyQdnUtNd+sAOeMCPR5Qn6olAojJK89XC+a9ZNa4EMf3m30yJvOnqCClqKl3Yevch05hptfRaD8OvGD0Aeb5D5zGyTp1SpppbecxX3WBzQZ+fE8LrV0NojY/uqz/8m2uVB8X7NFM/rX2laiwKkkKtGqjZPpR/oDEHxv3eJqy3dHIyuYtnAFBvWAZFc0m5J8e/z3x136MxC8X9b5ZooVZzFtOgM077lqThfpieQd7gyn7lEYjru987lLBs7R5r5FejIl1ueSd91YaE80Vf6XkZNE+f51qwfnKH9YyUXHmlatre6nXx7PsKnv3VBJCYYI1y42FKbp/dEbF8kcV30EpcWg8k8r8bJs4Co9hAGACXBZaOMtRROyBPhzdyn3mehSVPEVEYghjU/17kzrcO2kRBW1A7N/ChXRDLpV9pjX7BYnh7HObh9y9PVEuXpqZSjUFoag4D0I0L+RcWzslaeiFKtH/47k3YYZfxgvN5s7+wRxiwej/koHNNKWuCqdGlC8DWL5ekpieudrnJGCsTNXICU3OCm76iIHAYCaalsllK0ANdqeSploFi6vIbNoCKBPvsHna9bfQsf48oCY3EfnZW3BG3r5wsxXkCe3Fjawy9wxgmCIBonMfO0LOUwVH1XDISbMRhUPV23clC7dZIqT0RTUG/Smhc6ykT3wlfaUerIh0JVyxloi79JZUVwJUueOC8uleUI5BsOyVMwGvI0hIHMZ/+EwaC6hci0fVlp0HVBnnqynVmf/7dBErBO9bPbhRrauebAx8KqqsedUqkR1o0xBPJktzxVvgPVOMIwPATyNMR1CHk2DwOCuceAOCNP1NemFD5oWCXmt0r1xXThFfajk+1tXzQu5cxGj1+JMQTyZLM8kW84IwKMsQ9AnoZI6QRwfj8GhaEunOXXa5nucUieStPFXvvBuu5pkAfIvqlz9xDtVhN/7xqb+76sg77Fx8cMjCWQJ1vliXzDGQ+YM2dOBvJU4ZqUPH8CA8OgA+4sbWtlHJMnos5jH6diqCYVjOypuq3p/ruOteEA2X7lSfx+OS1RWkD+G4wpkCcb5Yl8wxkHoAP6IE+VT6m4tKVa6c46jUXiXJQngmpimXCIc6/1a69n/a4jdN0/7fij0gl2Tt1JLDhKmW+fLcC4AnmyTZ6sPxB4VyBPVXwR59lH6NBeDBD9rvfoUHMye/Lk6d0prNKxGAYdHEtnQGp7th77R9p0kPi1fpPmZEpHMGGMgTxZJE/OCYC4qe2QpyqYyPc3+kyu+OoDzZSxUBbytMsaqOZgdL3P15q0m6zW6/y0tgxUjp9i2xRexmM3SG+Isa17i35wF8YayJMl8rTdudjPedQNeao6lV5H01MYKN7LOF0b16NwXZ5KGU+fHW+SQFDtrhH5zk9qE0iPfcGmMyfF+zBXUVPQodI3Y8x5b4nAG5AnM+WJPAPyBHnq90uQTlNPeLZpU73HWuJ8DEmQp9IUnhiQS+1tzqaA5XVTuj6m6/5J1sSzfs6SWk+LlPYFP7w4yQV8SzWwPH5lubQHewXyBHmCPFkILQ41aVpF4w6sJRmfHR13+ydFnkoZGJ99w6zDY9nSdFPwYW0N4BX2s2P3GVuqvC/kwi8l8wgp9kbGD8b1Gn+/atrRPpAnyBPkabBfxS3hIUIm/pSgjNM9qYZC1oS2T5I8lYJFLjzTrGDBnsu0BB/S/MxzdISMwZmRjRplsj1BGac/jGhu/8SuzUCHjkOeIE+QJ1tpKAynE9Vt3B00hGtNJh82mtTsSZOnUrDIhZNE0Nxu0BqfZ+o9vQXxqGyCaIOnTX1XVJ7nuNs74HOPqsE7nG1aJ8RpamqAw8WzHr8O8gR5gjxZDE1lmXTIq8Svvnm6MwyQp4HkgeUNWyT9pO4yFSlv5j4ZP/x+vc/eNm/Hnd7+Ui6j4l4WSvSr+/rKNvXzTtwCeYI8QZ7spqacHTBvMWMF1xP1LXyMqQ2dVHkqi7oQB6OEgV8aRzvQuish93ebdTxRMD4WqW4JTxJt8ZQDSwOeTnvBqUN+Jzz+vbintSFPkCfIU7WIL3GajxeD2V8tHLyeFYPQWQOlyiFPBmSg8qzVoCzBglj7gpB88Rv+aER7xLoLtXVYNsfPtWV34i7XS2LMnEz3UPlHRTCOjhSCPEGeIE+247F01g8vMurA1/4D4B+psnM1g5fWgKnpyJxsMz/KYIG8yZC1KY+bkZErHe0S82He7LL4W4IkKjxT/JZHLdi9uzjjsYk0FSvlo2JSx4FxFRWtawmPgzxBniBPkgczSufT2gSjtpz7fG02z35F1axta1EdgYHqylBleZPbQUjvvxsgT3OMmtb0uj5Hle/jWEyd8fgFJrVF2g++WGoLg9aHlXZMCsGhsguKpzH/rPG+3jJlJzLkCfLkJpM7DqDUvhjQfhdLwbuyMM0TAe/b2hf6Sp22CqdpONOtYEFT1JC8xLypYKypmV9agyj6PNfzrrF19H4b2RYNhbpyuYtSvSz9O/SEvNG4Q7+Bnou+cYKNpVMhVO5SpZ3Won+dY7cfQJ4gTzYhvlTSOf6t0m4Rn/9JSbkDn68XA8dCMYhMLy0AH+vIidcT2mopKKqcxkw1do60pB/tJX7v/HjEKfyxFW1EtZE83pDx+e2i37yoIkuZybPz7WiLmfsIiTmRjlcqjQ1KamexdbQWjtbmlYpbxvyhVuexj2c99l3xe+4V4+w7ktaHbqdpYsru2e8HkCfIk90yVUcvYn2ON4kvtZ9R5oPWk9Biyv7OOCt9UfnsTREQlpXWLfn8LhIlWjhKNXGckaX+viwpCHj8OnHPvxbtMKuqK8/uEO13Y89unxq7WqJ1GAVvkijRJx4qFW+t9ir1vT4unz0i/p7/pKkRW/tNaadeufAoCUQXLbKu6BgcWqBMEu+xr1j7EpWOnOo6ojxm8Gsok1keS0rrCtf0lbUpjzt8bY+IPkz9gerdUaYvk+s8Jo7Dwofy0Up9N+OxH4jfP7vnXpfTh+ZABVDFf7dCXA/SNCjdJ5WJcMcPIE+QJ7flaq9SypsyIuJLmmTLlgXeAFhATaaxcFCmJfg87ZyiqW0SCtoFVhbT4Ix0LpxAojSiiX/K5mnvobYLZXpTTUF96vy5+5bv29Fxh8bYSXMypWKnNAVLY21DYbjrDxjyBHkCAAAAAOQJ8gQAAAAAyBPkCQAAAACQJ8gTAAAAACBPkCfIEwAAAAB5Sp48iRvbCnkCAAAAgAp5Is9wsXHWQZ4AAAAAoEKeOI/edq5xxI29DnkCAAAAgAp5Is9wUZ5WSjLL5ehqAAAAgCvyFC2XJE8rXWyc5yU1zsvoagAAAIAbUFyX4wfREgflqfiIpMzTanQ1AAAAwBU/iFZL8oOHXZSn+RJX09eguwEAAADWUyNrNz55hnOtw1j0S0nytKOzs3Mk+hsAAABgNxTPZblBFEW3OChPxctkNRBj7Gh0OQAAAMB2N2BHy3OD4mXONRDnvEFWA4k/6wx0OQAAAMB6NzhDohs0ONdAHR3RYRIbaDq6HAAAAGC9PE2X5QbkGc41UGtr6zDOow2SGuk+dDkAAADAbiieS/KC9eQZjhpmtFhSI21ijKXR7QAAAAA7oTguvGCjpDIFi51tKM75DFnpuTCMzkTXAwAAAOyE4ri85TzFNpct8zR5DRXdj64HAAAA2AnFcYm78E9ztqEKhUJW3OQWWY0VBMUT0P0AAAAAu6D4La++U3EL+YXTDSZucpHE7NOTbW3FWnRDAAAAwA4oblP8ljhl96DzjRZF0SUSbZMqit7p7Ap7AAAAwCEoXlPclukBnPOLnW+4jo6OA4RxbpbbcFE7jmwBAAAAzIXiNMVryfF/c6FQGJWIBuS8WJCbfSpdrwr7vBAlDAAAAABzKJck4BdSnJYd+4U8/SYxDRkE0TgF8vTu9RalBMXDOl9ch2JKDwAAANAHxV2KvxSHe6bo3lIV88knEtW4whYfUyhQOxXU5Ly4VDzAh8Q/7xV/bxelDSu5xJ/x23cv8WfNDIJgNF4TAAAA9iUxgtEUx3aOa5XFRvHnBBRfe+LsUoq7OuI7eUTiHpxo5PGa5EnltVWY9Vi8hgAAAGyB4hbFL/tjcDQ+kQ9QWOPDDjy8h/AqAgAAsCh58ZDtsZf8IckP8Bjb7Vc8wFfwKgIAALAocfGK7bM+5A8Jf4jF6+yWp+IqvIoAAAAsirurbI67jEXXJv4hFgqF4eJBPgN5AgAAACBPe4i5z5A34CmmSovXDuU8WgN5AgAAACBP/SyTWUO+gCfYizAsnmTj+ifIEwAAAMiT+nVO5Al4en0+UN4sGmg75AkAAACAPPU6v64ZT24AGCtOhTwBAAAAkKfyAvHiVDy1QQlU1MJ51A15AgAAAJIpT+QB5AN4YkMgiqLTRcNtgDwBAAAAyZKncvyPTsfTqkygjhEN+ALkCQAAAEiGPJXjfsKLYFZLZ2fnSNGIsyBPAAAAgOvyFM2iuI+nJIkgiMaJhn0R8gQAAAA4J08vUpzH01FAW1uxlrHou6KRV+JsOwAAAKASeTLqbLuVFNcpvuPJKIZKs0dR1CjseYEBu/IexRMBAABgCxS34t5FR/Gb4jiOWomJ9vb2gznnF4kHMU88kBWaO8A2pBkBAADYBMUtil+a4+WKcpzmF1HcxlMwU6bGiOs74pomHlabeGi3C8O9W/x7h3iIoYxL/JmzxZ95LFocAACAbVD8KscxWTGR4ivF2ej2ctyl+FuKw2MgSwAAAAAAAAAAAAAAAAAAAAAARfx/FEp3d58CGWsAAAAASUVORK5CYII=;" vertex="1" parent="1">
          <mxGeometry x="620" y="422.15" width="80" height="28.61" as="geometry" />
        </mxCell>
        <mxCell id="itZKIG-yiOrpijfQWZ46-7" value="" style="line;strokeWidth=4;html=1;perimeter=backbonePerimeter;points=[];outlineConnect=0;" vertex="1" parent="1">
          <mxGeometry x="450" y="431.46" width="150" height="10" as="geometry" />
        </mxCell>
        <mxCell id="itZKIG-yiOrpijfQWZ46-11" value="" style="shape=image;html=1;verticalAlign=top;verticalLabelPosition=bottom;labelBackgroundColor=#ffffff;imageAspect=0;aspect=fixed;image=https://cdn3.iconfinder.com/data/icons/humano2/128x128/apps/keepassx.png" vertex="1" parent="1">
          <mxGeometry x="116.5" y="500" width="48" height="48" as="geometry" />
        </mxCell>
        <mxCell id="itZKIG-yiOrpijfQWZ46-12" value="Only for&lt;br&gt;Revenue &lt;br&gt;Compliance &lt;br&gt;Group" style="outlineConnect=0;fontColor=#232F3E;gradientColor=none;fillColor=#232F3E;strokeColor=none;dashed=0;verticalLabelPosition=bottom;verticalAlign=top;align=center;html=1;fontSize=12;fontStyle=0;aspect=fixed;pointerEvents=1;shape=mxgraph.aws4.users;" vertex="1" parent="1">
          <mxGeometry x="50" y="425" width="38" height="38" as="geometry" />
        </mxCell>
        <mxCell id="itZKIG-yiOrpijfQWZ46-18" value="If in &quot;Revenue Comp Group&quot; &lt;br&gt;Password encrypted here &lt;br&gt;and sent back to user device" style="text;html=1;align=center;verticalAlign=middle;resizable=0;points=[];autosize=1;strokeColor=none;" vertex="1" parent="1">
          <mxGeometry x="296" y="480" width="170" height="50" as="geometry" />
        </mxCell>
      </root>
    </mxGraphModel>
  </diagram>
</mxfile>
